// Created by Crowbar 0.74
version 1
nodes
  0 "ValveBiped" -1
  1 "ValveBiped.weapon_bone" 0
  2 "ValveBiped.flash" 1
end
skeleton
  time 0
    0 0.000000 0.000000 0.000000 1.570796 0.000000 0.000000
    1 -0.439957 6.308490 5.191682 0.000000 0.000000 0.000000
    2 0.502212 -2.120895 28.556004 0.000000 0.000000 0.000000
end
triangles
  phy
    0 0.718360 -8.571599 6.522183 -0.016059 -0.931549 0.363260 0 0
    0 1.225602 -8.579498 6.035215 -0.057724 -0.319536 0.945814 0 0
    0 0.348823 -2.629242 6.373037 -0.172814 -0.686836 0.705969 0 0
  phy
    0 0.718360 -8.571599 6.522183 -0.016059 -0.931549 0.363260 0 0
    0 0.854570 -16.847291 6.420871 0.060846 -0.968977 0.239545 0 0
    0 1.225602 -8.579498 6.035215 -0.057724 -0.319536 0.945814 0 0
  phy
    0 0.348823 -2.629242 6.373037 -0.172814 -0.686836 0.705969 0 0
    0 -0.023247 -8.578080 6.522182 -0.003586 -0.956815 -0.290675 0 0
    0 0.718360 -8.571599 6.522183 -0.016059 -0.931549 0.363260 0 0
  phy
    0 0.718360 -8.571599 6.522183 -0.016059 -0.931549 0.363260 0 0
    0 -0.023247 -8.578080 6.522182 -0.003586 -0.956815 -0.290675 0 0
    0 0.854570 -16.847291 6.420871 0.060846 -0.968977 0.239545 0 0
  phy
    0 -0.001374 -33.885295 4.855104 0.069504 -0.453051 -0.888771 0 0
    0 -0.291612 -16.461713 6.304131 0.043224 -0.513501 -0.857000 0 0
    0 -1.958869 -5.376576 2.542291 -0.021291 -0.197037 -0.980165 0 0
  phy
    0 -0.001374 -33.885295 4.855104 0.069504 -0.453051 -0.888771 0 0
    0 -1.958869 -5.376576 2.542291 -0.021291 -0.197037 -0.980165 0 0
    0 0.000589 -34.452172 3.817489 0.104892 0.271661 -0.956660 0 0
  phy
    0 -0.001374 -33.885295 4.855104 0.069504 -0.453051 -0.888771 0 0
    0 0.000589 -34.452172 3.817489 0.104892 0.271661 -0.956660 0 0
    0 0.675913 -33.885292 4.855104 0.112968 -0.580985 0.806036 0 0
  phy
    0 0.675913 -33.885292 4.855104 0.112968 -0.580985 0.806036 0 0
    0 0.854570 -16.847291 6.420871 0.060846 -0.968977 0.239545 0 0
    0 -0.001374 -33.885295 4.855104 0.069504 -0.453051 -0.888771 0 0
  phy
    0 0.854570 -16.847291 6.420871 0.060846 -0.968977 0.239545 0 0
    0 -0.291612 -16.461713 6.304131 0.043224 -0.513501 -0.857000 0 0
    0 -0.001374 -33.885295 4.855104 0.069504 -0.453051 -0.888771 0 0
  phy
    0 0.675913 -33.885292 4.855104 0.112968 -0.580985 0.806036 0 0
    0 0.000589 -34.452172 3.817489 0.104892 0.271661 -0.956660 0 0
    0 0.682383 -34.441752 3.836554 0.066205 0.017519 0.997652 0 0
  phy
    0 0.682383 -34.441752 3.836554 0.066205 0.017519 0.997652 0 0
    0 0.000589 -34.452172 3.817489 0.104892 0.271661 -0.956660 0 0
    0 0.461773 -33.672809 3.019203 0.115161 0.776643 -0.619325 0 0
  phy
    0 0.461773 -33.672809 3.019203 0.115161 0.776643 -0.619325 0 0
    0 0.861689 -29.196839 3.182833 0.028696 0.124084 0.991857 0 0
    0 0.682383 -34.441752 3.836554 0.066205 0.017519 0.997652 0 0
  phy
    0 0.682383 -34.441752 3.836554 0.066205 0.017519 0.997652 0 0
    0 1.231754 -16.847286 5.847745 0.022612 -0.047209 0.998629 0 0
    0 0.675913 -33.885292 4.855104 0.112968 -0.580985 0.806036 0 0
  phy
    0 0.682383 -34.441752 3.836554 0.066205 0.017519 0.997652 0 0
    0 0.861689 -29.196839 3.182833 0.028696 0.124084 0.991857 0 0
    0 1.231754 -16.847286 5.847745 0.022612 -0.047209 0.998629 0 0
  phy
    0 -0.149266 -2.629242 6.161784 -0.136492 -0.491935 -0.859866 0 0
    0 -0.023247 -8.578080 6.522182 -0.003586 -0.956815 -0.290675 0 0
    0 0.348823 -2.629242 6.373037 -0.172814 -0.686836 0.705969 0 0
  phy
    0 1.076460 9.017116 1.430745 -0.095339 -0.204498 0.974213 0 0
    0 0.325360 9.084024 2.102294 -0.664055 -0.743026 -0.083324 0 0
    0 0.348823 -2.629242 6.373037 -0.172814 -0.686836 0.705969 0 0
  phy
    0 0.348823 -2.629242 6.373037 -0.172814 -0.686836 0.705969 0 0
    0 0.325360 9.084024 2.102294 -0.664055 -0.743026 -0.083324 0 0
    0 -0.149266 -2.629242 6.161784 -0.136492 -0.491935 -0.859866 0 0
  phy
    0 1.225602 -8.579498 6.035215 -0.057724 -0.319536 0.945814 0 0
    0 1.076460 9.017116 1.430745 -0.095339 -0.204498 0.974213 0 0
    0 0.348823 -2.629242 6.373037 -0.172814 -0.686836 0.705969 0 0
  phy
    0 0.675913 -33.885292 4.855104 0.112968 -0.580985 0.806036 0 0
    0 1.231754 -16.847286 5.847745 0.022612 -0.047209 0.998629 0 0
    0 0.854570 -16.847291 6.420871 0.060846 -0.968977 0.239545 0 0
  phy
    0 0.854570 -16.847291 6.420871 0.060846 -0.968977 0.239545 0 0
    0 1.231754 -16.847286 5.847745 0.022612 -0.047209 0.998629 0 0
    0 1.225602 -8.579498 6.035215 -0.057724 -0.319536 0.945814 0 0
  phy
    0 1.225602 -8.579498 6.035215 -0.057724 -0.319536 0.945814 0 0
    0 1.344410 -3.970408 3.708693 -0.014749 -0.051285 0.998575 0 0
    0 1.076460 9.017116 1.430745 -0.095339 -0.204498 0.974213 0 0
  phy
    0 1.231754 -16.847286 5.847745 0.022612 -0.047209 0.998629 0 0
    0 1.344410 -3.970408 3.708693 -0.014749 -0.051285 0.998575 0 0
    0 1.225602 -8.579498 6.035215 -0.057724 -0.319536 0.945814 0 0
  phy
    0 0.854570 -16.847291 6.420871 0.060846 -0.968977 0.239545 0 0
    0 -0.023247 -8.578080 6.522182 -0.003586 -0.956815 -0.290675 0 0
    0 -0.291612 -16.461713 6.304131 0.043224 -0.513501 -0.857000 0 0
  phy
    0 1.076525 8.679138 -1.961260 -0.032572 0.184168 0.982355 0 0
    0 0.844332 -10.395224 0.181879 0.082315 0.601864 0.794345 0 0
    0 0.325363 8.592358 -2.692856 0.115641 0.991224 -0.064041 0 0
  phy
    0 0.844332 -10.395224 0.181879 0.082315 0.601864 0.794345 0 0
    0 0.461773 -33.672809 3.019203 0.115161 0.776643 -0.619325 0 0
    0 0.325363 8.592358 -2.692856 0.115641 0.991224 -0.064041 0 0
  phy
    0 1.076525 8.679138 -1.961260 -0.032572 0.184168 0.982355 0 0
    0 0.861689 -29.196839 3.182833 0.028696 0.124084 0.991857 0 0
    0 0.844332 -10.395224 0.181879 0.082315 0.601864 0.794345 0 0
  phy
    0 0.844332 -10.395224 0.181879 0.082315 0.601864 0.794345 0 0
    0 0.861689 -29.196839 3.182833 0.028696 0.124084 0.991857 0 0
    0 0.461773 -33.672809 3.019203 0.115161 0.776643 -0.619325 0 0
  phy
    0 1.076525 8.679138 -1.961260 -0.032572 0.184168 0.982355 0 0
    0 1.076460 9.017116 1.430745 -0.095339 -0.204498 0.974213 0 0
    0 1.344410 -4.010920 2.407622 0.010870 0.063836 0.997901 0 0
  phy
    0 1.076460 9.017116 1.430745 -0.095339 -0.204498 0.974213 0 0
    0 1.344410 -3.970408 3.708693 -0.014749 -0.051285 0.998575 0 0
    0 1.344410 -4.010920 2.407622 0.010870 0.063836 0.997901 0 0
  phy
    0 1.231754 -16.847286 5.847745 0.022612 -0.047209 0.998629 0 0
    0 0.861689 -29.196839 3.182833 0.028696 0.124084 0.991857 0 0
    0 1.344410 -4.010920 2.407622 0.010870 0.063836 0.997901 0 0
  phy
    0 1.344410 -4.010920 2.407622 0.010870 0.063836 0.997901 0 0
    0 1.344410 -3.970408 3.708693 -0.014749 -0.051285 0.998575 0 0
    0 1.231754 -16.847286 5.847745 0.022612 -0.047209 0.998629 0 0
  phy
    0 1.344410 -4.010920 2.407622 0.010870 0.063836 0.997901 0 0
    0 0.861689 -29.196839 3.182833 0.028696 0.124084 0.991857 0 0
    0 1.076525 8.679138 -1.961260 -0.032572 0.184168 0.982355 0 0
  phy
    0 1.076460 9.017116 1.430745 -0.095339 -0.204498 0.974213 0 0
    0 1.076525 8.679138 -1.961260 -0.032572 0.184168 0.982355 0 0
    0 0.325360 9.084024 2.102294 -0.664055 -0.743026 -0.083324 0 0
  phy
    0 1.076525 8.679138 -1.961260 -0.032572 0.184168 0.982355 0 0
    0 -0.425801 8.679128 -1.961260 -0.002633 0.493356 -0.869823 0 0
    0 0.325360 9.084024 2.102294 -0.664055 -0.743026 -0.083324 0 0
  phy
    0 -0.425801 8.679128 -1.961260 -0.002633 0.493356 -0.869823 0 0
    0 1.076525 8.679138 -1.961260 -0.032572 0.184168 0.982355 0 0
    0 0.325363 8.592358 -2.692856 0.115641 0.991224 -0.064041 0 0
  phy
    0 0.461773 -33.672809 3.019203 0.115161 0.776643 -0.619325 0 0
    0 -1.730810 -5.376571 1.917010 0.080737 0.540838 -0.837243 0 0
    0 -0.425801 8.679128 -1.961260 -0.002633 0.493356 -0.869823 0 0
  phy
    0 -1.730810 -5.376571 1.917010 0.080737 0.540838 -0.837243 0 0
    0 0.461773 -33.672809 3.019203 0.115161 0.776643 -0.619325 0 0
    0 0.000589 -34.452172 3.817489 0.104892 0.271661 -0.956660 0 0
  phy
    0 0.461773 -33.672809 3.019203 0.115161 0.776643 -0.619325 0 0
    0 -0.425801 8.679128 -1.961260 -0.002633 0.493356 -0.869823 0 0
    0 0.325363 8.592358 -2.692856 0.115641 0.991224 -0.064041 0 0
  phy
    0 -0.291612 -16.461713 6.304131 0.043224 -0.513501 -0.857000 0 0
    0 -0.023247 -8.578080 6.522182 -0.003586 -0.956815 -0.290675 0 0
    0 -0.526958 -8.579507 6.035215 -0.013807 -0.446281 -0.894786 0 0
  phy
    0 -0.526958 -8.579507 6.035215 -0.013807 -0.446281 -0.894786 0 0
    0 -0.023247 -8.578080 6.522182 -0.003586 -0.956815 -0.290675 0 0
    0 -0.149266 -2.629242 6.161784 -0.136492 -0.491935 -0.859866 0 0
  phy
    0 -0.291612 -16.461713 6.304131 0.043224 -0.513501 -0.857000 0 0
    0 -0.526958 -8.579507 6.035215 -0.013807 -0.446281 -0.894786 0 0
    0 -1.958869 -5.376576 2.542291 -0.021291 -0.197037 -0.980165 0 0
  phy
    0 -0.526958 -8.579507 6.035215 -0.013807 -0.446281 -0.894786 0 0
    0 -0.149266 -2.629242 6.161784 -0.136492 -0.491935 -0.859866 0 0
    0 -1.958869 -5.376576 2.542291 -0.021291 -0.197037 -0.980165 0 0
  phy
    0 -0.425801 8.679128 -1.961260 -0.002633 0.493356 -0.869823 0 0
    0 -1.730810 -5.376571 1.917010 0.080737 0.540838 -0.837243 0 0
    0 -1.958869 -5.376576 2.542291 -0.021291 -0.197037 -0.980165 0 0
  phy
    0 -1.958869 -5.376576 2.542291 -0.021291 -0.197037 -0.980165 0 0
    0 -1.730810 -5.376571 1.917010 0.080737 0.540838 -0.837243 0 0
    0 0.000589 -34.452172 3.817489 0.104892 0.271661 -0.956660 0 0
  phy
    0 -0.149266 -2.629242 6.161784 -0.136492 -0.491935 -0.859866 0 0
    0 -0.425802 9.009645 1.432698 -0.158463 -0.253082 -0.954379 0 0
    0 -1.958869 -5.376576 2.542291 -0.021291 -0.197037 -0.980165 0 0
  phy
    0 -0.149266 -2.629242 6.161784 -0.136492 -0.491935 -0.859866 0 0
    0 0.325360 9.084024 2.102294 -0.664055 -0.743026 -0.083324 0 0
    0 -0.425802 9.009645 1.432698 -0.158463 -0.253082 -0.954379 0 0
  phy
    0 -0.425802 9.009645 1.432698 -0.158463 -0.253082 -0.954379 0 0
    0 -0.425801 8.679128 -1.961260 -0.002633 0.493356 -0.869823 0 0
    0 -1.958869 -5.376576 2.542291 -0.021291 -0.197037 -0.980165 0 0
  phy
    0 -0.425801 8.679128 -1.961260 -0.002633 0.493356 -0.869823 0 0
    0 -0.425802 9.009645 1.432698 -0.158463 -0.253082 -0.954379 0 0
    0 0.325360 9.084024 2.102294 -0.664055 -0.743026 -0.083324 0 0
end
