// Created by Crowbar 0.74
version 1
nodes
  0 "ValveBiped" -1
  1 "ValveBiped.weapon_bone" 0
  2 "ValveBiped.flash" 1
end
skeleton
  time 0
    0 0.000000 0.000000 0.000000 1.570792 0.000003 -0.000003
    1 -0.439957 6.308490 5.191682 0.000000 0.000000 0.000000
    2 0.502212 -2.120895 28.556004 0.000000 0.000000 0.000000
  time 1
    0 0.000000 0.000000 0.000000 1.570792 0.000003 -0.000003
    1 -0.439957 6.308490 5.191682 0.000000 0.000000 0.000000
    2 0.502212 -2.120895 28.556004 0.000000 0.000000 0.000000
  time 2
    0 0.000000 0.000000 0.000000 1.570792 0.000003 -0.000003
    1 -0.439957 6.308490 5.191682 0.000000 0.000000 0.000000
    2 0.502212 -2.120895 28.556004 0.000000 0.000000 0.000000
  time 3
    0 0.000000 0.000000 0.000000 1.570792 0.000003 -0.000003
    1 -0.439957 6.308490 5.191682 0.000000 0.000000 0.000000
    2 0.502212 -2.120895 28.556004 0.000000 0.000000 0.000000
  time 4
    0 0.000000 0.000000 0.000000 1.570792 0.000003 -0.000003
    1 -0.439957 6.308490 5.191682 0.000000 0.000000 0.000000
    2 0.502212 -2.120895 28.556004 0.000000 0.000000 0.000000
  time 5
    0 0.000000 0.000000 0.000000 1.570792 0.000003 -0.000003
    1 -0.439957 6.308490 5.191682 0.000000 0.000000 0.000000
    2 0.502212 -2.120895 28.556004 0.000000 0.000000 0.000000
end
